<svg id="visual" viewBox="0 0 960 540" width="960" height="540" xmlns="http://www.w3.org/2000/svg" xmlns:xlink="http://www.w3.org/1999/xlink" version="1.1"><rect x="0" y="0" width="960" height="540" fill="#001220"></rect><path d="M0 245L22.8 242.2C45.7 239.3 91.3 233.7 137 236C182.7 238.3 228.3 248.7 274 247.3C319.7 246 365.3 233 411.2 236.2C457 239.3 503 258.7 548.8 250.3C594.7 242 640.3 206 686 209C731.7 212 777.3 254 823 257.5C868.7 261 914.3 226 937.2 208.5L960 191L960 0L937.2 0C914.3 0 868.7 0 823 0C777.3 0 731.7 0 686 0C640.3 0 594.7 0 548.8 0C503 0 457 0 411.2 0C365.3 0 319.7 0 274 0C228.3 0 182.7 0 137 0C91.3 0 45.7 0 22.8 0L0 0Z" fill="#dbff7a"></path><path d="M0 230L22.8 230.5C45.7 231 91.3 232 137 216.3C182.7 200.7 228.3 168.3 274 161.2C319.7 154 365.3 172 411.2 174.8C457 177.7 503 165.3 548.8 156.8C594.7 148.3 640.3 143.7 686 139.3C731.7 135 777.3 131 823 142.5C868.7 154 914.3 181 937.2 194.5L960 208L960 0L937.2 0C914.3 0 868.7 0 823 0C777.3 0 731.7 0 686 0C640.3 0 594.7 0 548.8 0C503 0 457 0 411.2 0C365.3 0 319.7 0 274 0C228.3 0 182.7 0 137 0C91.3 0 45.7 0 22.8 0L0 0Z" fill="#f6b742"></path><path d="M0 120L22.8 121.5C45.7 123 91.3 126 137 136.7C182.7 147.3 228.3 165.7 274 160C319.7 154.3 365.3 124.7 411.2 109.2C457 93.7 503 92.3 548.8 97.8C594.7 103.3 640.3 115.7 686 123.5C731.7 131.3 777.3 134.7 823 135.8C868.7 137 914.3 136 937.2 135.5L960 135L960 0L937.2 0C914.3 0 868.7 0 823 0C777.3 0 731.7 0 686 0C640.3 0 594.7 0 548.8 0C503 0 457 0 411.2 0C365.3 0 319.7 0 274 0C228.3 0 182.7 0 137 0C91.3 0 45.7 0 22.8 0L0 0Z" fill="#f16b4b"></path><path d="M0 113L22.8 103.8C45.7 94.7 91.3 76.3 137 74.2C182.7 72 228.3 86 274 94.8C319.7 103.7 365.3 107.3 411.2 105.8C457 104.3 503 97.7 548.8 92C594.7 86.3 640.3 81.7 686 83.7C731.7 85.7 777.3 94.3 823 92.8C868.7 91.3 914.3 79.7 937.2 73.8L960 68L960 0L937.2 0C914.3 0 868.7 0 823 0C777.3 0 731.7 0 686 0C640.3 0 594.7 0 548.8 0C503 0 457 0 411.2 0C365.3 0 319.7 0 274 0C228.3 0 182.7 0 137 0C91.3 0 45.7 0 22.8 0L0 0Z" fill="#c62368"></path></svg>